<svg version="1.2" baseProfile="tiny-ps" xmlns="http://www.w3.org/2000/svg" viewBox="0 0 20 35" width="20" height="35">
	<title>Features</title>
	<style>
		tspan { white-space:pre }
		.shp0 { fill: #18cfab } 
	</style>
	<g id="Features">
		<g id="3">
			<path id="Forma 1" class="shp0" d="M14.95 27.66L14.94 27.66L5.06 27.66L5.05 27.66C4.54 27.66 4.13 28.09 4.13 28.61C4.12 29.13 4.54 29.56 5.05 29.56L14.95 29.56C15.46 29.56 15.88 29.13 15.87 28.61C15.87 28.09 15.46 27.66 14.95 27.66ZM14.74 30.39L5.26 30.39C4.75 30.39 4.33 30.81 4.33 31.33C4.34 31.85 4.75 32.27 5.26 32.27L5.26 32.27L14.74 32.27L14.74 32.27C15.25 32.27 15.66 31.85 15.67 31.33C15.67 30.81 15.25 30.39 14.74 30.39ZM13.5 33.12L6.5 33.12C5.99 33.12 5.57 33.54 5.58 34.06C5.58 34.58 5.99 35 6.51 35L6.51 35L13.49 35L13.49 35C14.01 35 14.42 34.58 14.42 34.06C14.43 33.54 14.01 33.12 13.5 33.12ZM10.16 0C10.11 0 9.89 0 9.84 0C4.4 0 0 4.91 0 10.97C0 13.79 0.75 15.59 2.53 18.28C3.6 19.89 5.08 21.11 5.31 26.75L14.69 26.75C14.92 21.11 16.4 19.9 17.47 18.29C19.25 15.59 20 13.78 20 10.96C20 4.91 15.59 0 10.16 0ZM13.62 12.69L10.3 16.15L10.3 24.24C10.3 24.41 10.16 24.54 10 24.55C9.84 24.54 9.7 24.41 9.7 24.24L9.7 16.15L6.38 12.69C6.26 12.57 6.26 12.37 6.39 12.25C6.51 12.12 6.71 12.13 6.83 12.25L10 15.55L13.17 12.25C13.29 12.13 13.49 12.12 13.61 12.25C13.74 12.37 13.74 12.57 13.62 12.69Z" />
		</g>
	</g>
</svg>