<svg version="1.2" baseProfile="tiny-ps" xmlns="http://www.w3.org/2000/svg" viewBox="0 0 27 22" width="27" height="22">
	<title>Features</title>
	<style>
		tspan { white-space:pre }
		.shp0 { fill: #18cfab } 
	</style>
	<g id="Features">
		<g id="9">
			<path id="Forma 1" class="shp0" d="M13.17 13.01L12.51 13.01C12.17 13.01 11.9 12.73 11.9 12.39C11.9 12.26 11.95 12.14 12.04 12.05C12.42 11.68 12.74 11.17 12.97 10.63C13.02 10.66 13.07 10.69 13.13 10.69C13.5 10.69 13.93 9.87 13.93 9.31C13.93 8.75 13.88 8.3 13.51 8.3C13.47 8.3 13.42 8.3 13.37 8.31C13.35 6.8 12.97 4.9 10.67 4.9C8.27 4.9 7.99 6.79 7.96 8.31C7.93 8.3 7.89 8.3 7.86 8.3C7.49 8.3 7.44 8.75 7.44 9.31C7.44 9.87 7.87 10.69 8.24 10.69C8.29 10.69 8.33 10.68 8.37 10.65C8.6 11.19 8.92 11.68 9.3 12.05C9.39 12.14 9.44 12.26 9.44 12.39C9.44 12.73 9.16 13.01 8.82 13.01L8.16 13.01C6.76 13.01 5.62 14.16 5.62 15.57L5.62 16.28C5.62 16.73 5.98 17.09 6.42 17.09L14.91 17.09C15.35 17.09 15.71 16.73 15.71 16.28L15.71 15.57C15.71 14.16 14.58 13.01 13.17 13.01ZM20.79 5.98L13.67 5.98C13.87 6.44 14.02 7 14.08 7.7C14.23 7.79 14.35 7.94 14.44 8.13L20.79 8.13C21.12 8.13 21.38 7.86 21.38 7.53L21.38 6.58C21.38 6.25 21.12 5.98 20.79 5.98ZM20.79 9.9L14.59 9.9C14.42 10.54 14 11.21 13.43 11.39C13.41 11.42 13.39 11.45 13.37 11.48L13.37 12.05L20.79 12.05C21.11 12.05 21.38 11.78 21.38 11.45L21.38 10.5C21.38 10.17 21.12 9.9 20.79 9.9ZM20.79 13.82L15.95 13.82C16.27 14.33 16.45 14.93 16.45 15.57L16.45 15.97L20.79 15.97C21.12 15.97 21.38 15.7 21.38 15.37L21.38 14.42C21.38 14.09 21.12 13.82 20.79 13.82ZM23.34 0L3.66 0C1.64 0 0 1.65 0 3.68L0 18.31C0 20.35 1.64 22 3.66 22L23.34 22C25.36 22 27 20.35 27 18.31L27 3.68C27 1.65 25.36 0 23.34 0ZM25.27 18.31C25.27 19.39 24.41 20.26 23.34 20.26L3.66 20.26C2.59 20.26 1.73 19.39 1.73 18.31L1.73 3.68C1.73 2.61 2.59 1.74 3.66 1.74L23.34 1.74C24.41 1.74 25.27 2.61 25.27 3.68L25.27 18.31Z" />
		</g>
	</g>
</svg>