<svg version="1.2" baseProfile="tiny-ps" xmlns="http://www.w3.org/2000/svg" viewBox="0 0 28 28" width="28" height="28">
	<title>Features</title>
	<style>
		tspan { white-space:pre }
		.shp0 { fill: #18cfab } 
	</style>
	<g id="Features">
		<g id="7">
			<path id="Forma 1" class="shp0" d="M26.98 23.3L20.62 16.94C19.67 18.41 18.41 19.67 16.94 20.62L23.31 26.98C24.32 28 25.97 28 26.98 26.98C28 25.97 28 24.32 26.98 23.3ZM20.81 10.4C20.81 4.66 16.15 0 10.4 0C4.66 0 0 4.66 0 10.4C0 16.15 4.66 20.81 10.4 20.81C16.15 20.81 20.81 16.15 20.81 10.4ZM10.4 18.21C6.1 18.21 2.6 14.71 2.6 10.4C2.6 6.1 6.1 2.6 10.4 2.6C14.71 2.6 18.21 6.1 18.21 10.4C18.21 14.71 14.71 18.21 10.4 18.21ZM4.34 10.4L6.07 10.4C6.07 8.01 8.01 6.07 10.4 6.07L10.4 4.33C7.06 4.33 4.34 7.06 4.34 10.4Z" />
		</g>
	</g>
</svg>