<svg version="1.2" baseProfile="tiny-ps" xmlns="http://www.w3.org/2000/svg" viewBox="0 0 34 22" width="34" height="22">
	<title>Features</title>
	<style>
		tspan { white-space:pre }
		.shp0 { fill: #18cfab } 
	</style>
	<g id="Features">
		<g id="5">
			<path id="Forma 1" class="shp0" d="M33.95 18.76C33.92 18.72 33.87 18.7 33.82 18.7L0.18 18.7C0.13 18.7 0.08 18.72 0.05 18.76C0.01 18.8 0 18.85 0.01 18.9C0.01 18.93 0.52 22 4.46 22L29.54 22C33.48 22 33.99 18.93 33.99 18.9C34 18.85 33.99 18.8 33.95 18.76ZM19.53 20.92L14.47 20.92L14.47 19.78L19.53 19.78L19.53 20.92ZM3.67 17.51L30.33 17.51C30.71 17.51 31.02 17.2 31.02 16.82L31.02 0.68C31.02 0.31 30.71 0 30.33 0L3.67 0C3.29 0 2.97 0.31 2.97 0.68L2.97 16.82C2.97 17.2 3.29 17.51 3.67 17.51ZM5.42 2.41L28.58 2.41L28.58 15.1L5.42 15.1L5.42 2.41Z" />
		</g>
	</g>
</svg>