<svg version="1.2" baseProfile="tiny-ps" xmlns="http://www.w3.org/2000/svg" viewBox="0 0 26 24" width="26" height="24">
	<title>Features</title>
	<style>
		tspan { white-space:pre }
		.shp0 { fill: #18cfab } 
	</style>
	<g id="Features">
		<g id="6">
			<path id="Forma 1" class="shp0" d="M1.11 9.21C0.55 9.43 0.16 9.92 0.08 10.51C0 11.1 0.25 11.68 0.73 12.03L6.02 15.84L24.79 1.2L8.19 17.41L15.42 22.62C15.88 22.95 16.47 23.05 17.02 22.88C17.56 22.72 18 22.31 18.19 21.78L25.92 0.82C26 0.6 25.95 0.37 25.78 0.21C25.62 0.05 25.38 0 25.17 0.08L1.11 9.21ZM4.76 17.1L4.81 17.35L5.84 22.91C5.91 23.32 6.19 23.66 6.58 23.83C6.97 24 7.41 23.96 7.77 23.73C9.2 22.82 11.06 21.61 11.01 21.54L4.76 17.1Z" />
		</g>
	</g>
</svg>