<svg version="1.2" baseProfile="tiny-ps" xmlns="http://www.w3.org/2000/svg" viewBox="0 0 22 30" width="22" height="30">
	<title>Features</title>
	<style>
		tspan { white-space:pre }
		.shp0 { fill: #17cfab } 
	</style>
	<g id="Features">
		<g id="2">
			<path id="Forma 1" class="shp0" d="M20.27 2.57L21.14 2.57C21.61 2.57 22 2.18 22 1.71L22 0.86C22 0.38 21.61 0 21.14 0L0.86 0C0.39 0 0 0.38 0 0.86L0 1.71C0 2.18 0.39 2.57 0.86 2.57L1.73 2.57C1.73 10.2 7.85 10.5 8.2 15C7.85 19.5 1.73 19.8 1.73 27.43L0.86 27.43C0.39 27.43 0 27.81 0 28.28L0 29.14C0 29.61 0.39 30 0.86 30L21.14 30C21.61 30 22 29.61 22 29.14L22 28.28C22 27.81 21.61 27.43 21.14 27.43L20.27 27.43C20.27 19.8 14.15 19.5 13.8 15C14.15 10.5 20.27 10.2 20.27 2.57ZM17.66 26.71C17.86 27 17.65 27.39 17.3 27.39L11 27.39L4.63 27.39C4.3 27.39 4.08 27.02 4.26 26.74C5.94 23.95 8 21.87 10.71 19.82C10.88 19.7 11.11 19.71 11.27 19.85C14.02 22.34 15.98 24.33 17.66 26.71ZM10.97 12.91L6.37 8.35C6.37 8.35 8.68 9.29 10.56 9.29C12.44 9.29 14.05 7.96 15.46 7.96C16.87 7.96 10.97 12.91 10.97 12.91Z" />
		</g>
	</g>
</svg>