<svg version="1.2" baseProfile="tiny-ps" xmlns="http://www.w3.org/2000/svg" viewBox="0 0 25 34" width="25" height="34">
	<title>Features</title>
	<style>
		tspan { white-space:pre }
		.shp0 { fill: #18cfab } 
	</style>
	<g id="Features">
		<g id="1">
			<path id="Forma 1" class="shp0" d="M21.2 0C21.2 0 18.41 2.71 15.39 3.81C-7 11.91 2.44 27.7 2.75 27.75C2.75 27.75 4 25.56 5.7 24.32C16.46 16.4 18.65 7.29 18.65 7.29C18.65 7.29 16.23 18.25 6.66 25.08C4.55 26.58 3.11 30.29 2.51 34C2.51 34 4.01 33.39 4.65 33.23C4.9 31.59 5.43 30.02 6.32 28.61C19.7 30.2 24.08 19.41 24.65 15.65C26 6.77 21.2 0 21.2 0Z" />
		</g>
	</g>
</svg>