<svg version="1.2" baseProfile="tiny-ps" xmlns="http://www.w3.org/2000/svg" viewBox="0 0 24 24" width="24" height="24">
	<title>Features</title>
	<style>
		tspan { white-space:pre }
		.shp0 { fill: #18cfab } 
	</style>
	<g id="Features">
		<g id="8">
			<path id="Forma 1" class="shp0" d="M0.87 20.16C0 21.04 0 22.46 0.87 23.34C1.31 23.78 1.88 24 2.45 24C3.02 24 3.59 23.78 4.02 23.34L11.33 15.96L8.18 12.78L0.87 20.16ZM19.15 6.48L22.33 4.82L24 1.57L22.45 0L19.22 1.68L17.57 4.89L13.7 8.81L15.27 10.4L19.15 6.48ZM19.85 15.01L19.54 14.98C19 14.98 18.49 15.1 18 15.28L8.86 6.05C9.04 5.56 9.15 5.04 9.15 4.49L9.12 4.19C8.96 1.85 7.05 0 4.7 0C4.01 0 3.37 0.17 2.79 0.45L5.75 3.43C5.9 3.59 6.01 3.78 6.08 3.97C6.27 4.5 6.17 5.12 5.75 5.55C5.46 5.85 5.08 5.99 4.7 5.99C4.52 5.99 4.35 5.95 4.18 5.89C3.99 5.82 3.8 5.71 3.65 5.55L0.69 2.57C0.41 3.15 0.24 3.8 0.24 4.49C0.24 6.87 2.08 8.8 4.4 8.96L4.7 8.99C5.24 8.99 5.75 8.88 6.24 8.7L15.38 17.92C15.2 18.41 15.09 18.93 15.09 19.48L15.12 19.78C15.28 22.12 17.19 23.97 19.54 23.97C20.23 23.97 20.87 23.81 21.45 23.53L18.5 20.54C18.34 20.38 18.23 20.2 18.16 20C17.97 19.47 18.07 18.85 18.5 18.42C18.78 18.13 19.17 17.98 19.54 17.98C19.72 17.98 19.89 18.02 20.06 18.08C20.25 18.15 20.44 18.26 20.6 18.42L23.55 21.41C23.83 20.82 24 20.17 24 19.48C24 17.1 22.16 15.17 19.85 15.01Z" />
		</g>
	</g>
</svg>